<svg xmlns="http://www.w3.org/2000/svg" height="48" viewBox="0 96 960 960" width="48" fill="#574d97"><path d="M479.825 871q-18.45 0-31.637-12.625Q435 845.75 435 825V622H230q-18.375 0-31.688-13.56Q185 594.881 185 576.14q0-20.14 13.312-32.64Q211.625 531 230 531h205V326q0-19.775 13.358-32.388Q461.716 281 480.158 281t32.142 12.612Q526 306.225 526 326v205h204q18.8 0 32.4 12.675 13.6 12.676 13.6 32.316 0 19.641-13.6 32.825Q748.8 622 730 622H526v203q0 20.75-13.65 33.375Q498.699 871 479.825 871Z"/></svg>